<?xml version="1.0" encoding="utf-8"?>
<!-- Generator: Adobe Illustrator 16.0.3, SVG Export Plug-In . SVG Version: 6.00 Build 0)  -->
<!DOCTYPE svg PUBLIC "-//W3C//DTD SVG 1.1//EN" "http://www.w3.org/Graphics/SVG/1.1/DTD/svg11.dtd" [
	<!ENTITY ns_extend "http://ns.adobe.com/Extensibility/1.0/">
	<!ENTITY ns_ai "http://ns.adobe.com/AdobeIllustrator/10.0/">
	<!ENTITY ns_graphs "http://ns.adobe.com/Graphs/1.0/">
	<!ENTITY ns_vars "http://ns.adobe.com/Variables/1.0/">
	<!ENTITY ns_imrep "http://ns.adobe.com/ImageReplacement/1.0/">
	<!ENTITY ns_sfw "http://ns.adobe.com/SaveForWeb/1.0/">
	<!ENTITY ns_custom "http://ns.adobe.com/GenericCustomNamespace/1.0/">
	<!ENTITY ns_adobe_xpath "http://ns.adobe.com/XPath/1.0/">
]>
<svg version="1.1" id="Warstwa_1" xmlns:x="&ns_extend;" xmlns:i="&ns_ai;" xmlns:graph="&ns_graphs;"
	 xmlns="http://www.w3.org/2000/svg" xmlns:xlink="http://www.w3.org/1999/xlink" x="0px" y="0px" width="230.871px"
	 height="145.63px" viewBox="0 0 230.871 145.63" enable-background="new 0 0 230.871 145.63" xml:space="preserve">
<metadata>
	<sfw  xmlns="&ns_sfw;">
		<slices></slices>
		<sliceSourceBounds  width="733.169" height="16383" x="266" y="-8490" bottomLeftOrigin="true"></sliceSourceBounds>
	</sfw>
</metadata>
<g>
	<g>
		<path fill="#FFFFFF" d="M0,128.584v-25.815h23.046v4.51H4.475v16.795h18.606v4.51H0z M7.776,117.364v-3.8h14.311v3.8H7.776z"/>
		<path fill="#FFFFFF" d="M53.351,128.584l-3.871-6.498H37.264l2.13-3.658h7.92l-5.754-9.659l-11.717,19.815h-5.148l14.842-24.715
			c0.26-0.449,0.568-0.805,0.924-1.064c0.355-0.261,0.781-0.391,1.278-0.391s0.917,0.129,1.261,0.391
			c0.344,0.26,0.645,0.616,0.905,1.064l14.878,24.715H53.351z"/>
		<path fill="#FFFFFF" d="M70.11,128.584c-1.799,0-3.463-0.338-4.989-1.012c-1.527-0.675-2.853-1.599-3.978-2.77
			s-2-2.562-2.627-4.172c-0.628-1.609-0.941-3.349-0.941-5.22c0-1.894,0.313-3.622,0.941-5.184c0.627-1.563,1.502-2.895,2.627-3.996
			c1.125-1.101,2.45-1.953,3.978-2.557c1.526-0.603,3.19-0.905,4.989-0.905h13.99v4.51H70.11c-1.16,0-2.232,0.207-3.214,0.622
			c-0.982,0.414-1.828,0.988-2.539,1.722c-0.71,0.734-1.267,1.61-1.669,2.627c-0.402,1.019-0.604,2.144-0.604,3.374
			c0,1.207,0.201,2.331,0.604,3.374c0.402,1.042,0.959,1.935,1.669,2.68c0.711,0.747,1.557,1.333,2.539,1.758
			c0.981,0.426,2.054,0.639,3.214,0.639h11.043v-6.71H69.506v-3.8H85.7v15.021H70.11z"/>
		<path fill="#FFFFFF" d="M89.392,128.584v-25.815h4.51v21.305h17.364v4.51H89.392z"/>
		<path fill="#FFFFFF" d="M113.37,128.584v-25.815h23.045v4.51h-18.57v16.795h18.606v4.51H113.37z M121.146,117.364v-3.8h14.312v3.8
			H121.146z"/>
		<path fill="#FFFFFF" d="M149.342,128.584v-25.815h23.046v4.51h-18.571v16.795h18.606v4.51H149.342z M157.118,117.364v-3.8h14.311
			v3.8H157.118z"/>
		<path fill="#FFFFFF" d="M187.671,128.584v-9.801l-13.707-16.014h6.071l10.05,11.896l10.084-11.896h5.753l-13.743,16.014v9.801
			H187.671z"/>
		<path fill="#FFFFFF" d="M207.79,128.584v-25.815h23.045v4.51h-18.57v16.795h18.606v4.51H207.79z M215.566,117.364v-3.8h14.312v3.8
			H215.566z"/>
	</g>
	<g>
		<path fill="#FFFFFF" d="M25.838,145.51v-1.518h6.513c0.405,0,0.719-0.104,0.938-0.311s0.328-0.481,0.328-0.824
			c0-0.375-0.109-0.655-0.328-0.843c-0.219-0.187-0.532-0.28-0.938-0.28h-3.992c-0.406,0-0.773-0.062-1.105-0.186
			c-0.33-0.123-0.607-0.294-0.836-0.514c-0.227-0.219-0.402-0.48-0.525-0.783c-0.123-0.302-0.186-0.633-0.186-0.991
			c0-0.351,0.058-0.675,0.174-0.974c0.115-0.299,0.286-0.556,0.514-0.77c0.227-0.216,0.508-0.384,0.843-0.508
			c0.334-0.123,0.716-0.186,1.146-0.186h6.237v1.518h-6.237c-0.351,0-0.622,0.094-0.813,0.28c-0.19,0.188-0.286,0.449-0.286,0.783
			s0.097,0.593,0.291,0.777c0.195,0.183,0.461,0.275,0.796,0.275h3.979c0.883,0,1.555,0.207,2.013,0.621
			c0.458,0.415,0.687,1.043,0.687,1.888c0,0.366-0.056,0.705-0.167,1.015c-0.112,0.311-0.279,0.58-0.501,0.807
			c-0.224,0.227-0.504,0.404-0.843,0.532s-0.735,0.191-1.188,0.191H25.838z"/>
		<path fill="#FFFFFF" d="M40.249,145.51v-7.169h-3.297v-1.518h8.113v1.518h-3.299v7.169H40.249z"/>
		<path fill="#FFFFFF" d="M55.012,145.51l-1.302-2.187h-4.111l0.717-1.231h2.665l-1.937-3.25l-3.942,6.667h-1.732l4.994-8.316
			c0.087-0.152,0.19-0.271,0.312-0.359c0.119-0.087,0.263-0.131,0.43-0.131s0.309,0.043,0.424,0.131
			c0.115,0.088,0.217,0.207,0.305,0.359l5.007,8.316H55.012z"/>
		<path fill="#FFFFFF" d="M59.024,145.51v-8.687h7.371v1.518h-5.866v7.169H59.024z M61.642,141.914v-1.327h4.396v1.327H61.642z"/>
		<path fill="#FFFFFF" d="M68.668,145.51v-8.687h7.372v1.518h-5.867v7.169H68.668z M71.284,141.914v-1.327h4.397v1.327H71.284z"/>
		<path fill="#FFFFFF" d="M78.378,145.51v-8.687h1.518v8.687H78.378z"/>
		<path fill="#FFFFFF" d="M84.298,139.153v6.357h-1.445v-7.886c0-0.278,0.069-0.5,0.209-0.663c0.14-0.164,0.328-0.245,0.568-0.245
			c0.111,0,0.219,0.023,0.322,0.071c0.104,0.048,0.211,0.127,0.322,0.24l6.129,6.082v-6.356h1.445v7.958
			c0,0.287-0.068,0.51-0.209,0.668c-0.139,0.16-0.32,0.24-0.543,0.24c-0.246,0-0.479-0.108-0.693-0.323L84.298,139.153z"/>
		<path fill="#FFFFFF" d="M98.616,145.51c-0.605,0-1.166-0.113-1.679-0.341c-0.514-0.227-0.96-0.537-1.339-0.932
			c-0.377-0.394-0.673-0.862-0.883-1.403c-0.212-0.542-0.318-1.127-0.318-1.756c0-0.637,0.106-1.219,0.318-1.745
			c0.21-0.525,0.506-0.973,0.883-1.344c0.379-0.37,0.825-0.657,1.339-0.859c0.513-0.204,1.073-0.306,1.679-0.306h4.707v1.518h-4.707
			c-0.391,0-0.751,0.07-1.081,0.209c-0.331,0.139-0.616,0.333-0.854,0.58c-0.239,0.247-0.426,0.542-0.563,0.884
			c-0.135,0.342-0.202,0.721-0.202,1.135c0,0.407,0.067,0.784,0.202,1.135c0.137,0.351,0.323,0.652,0.563,0.903
			c0.238,0.25,0.523,0.448,0.854,0.591c0.33,0.144,0.69,0.215,1.081,0.215h3.716v-2.258h-3.919v-1.278h5.449v5.054H98.616z"/>
		<path fill="#FFFFFF" d="M111.114,145.51v-1.518h6.512c0.405,0,0.719-0.104,0.938-0.311s0.328-0.481,0.328-0.824
			c0-0.375-0.109-0.655-0.328-0.843c-0.219-0.187-0.532-0.28-0.938-0.28h-3.991c-0.407,0-0.774-0.062-1.106-0.186
			c-0.33-0.123-0.607-0.294-0.836-0.514c-0.227-0.219-0.402-0.48-0.525-0.783c-0.123-0.302-0.186-0.633-0.186-0.991
			c0-0.351,0.058-0.675,0.174-0.974c0.115-0.299,0.286-0.556,0.514-0.77c0.227-0.216,0.508-0.384,0.843-0.508
			c0.335-0.123,0.716-0.186,1.146-0.186h6.237v1.518h-6.237c-0.351,0-0.621,0.094-0.812,0.28c-0.191,0.188-0.287,0.449-0.287,0.783
			s0.097,0.593,0.292,0.777c0.195,0.183,0.46,0.275,0.795,0.275h3.979c0.883,0,1.555,0.207,2.013,0.621
			c0.458,0.415,0.687,1.043,0.687,1.888c0,0.366-0.056,0.705-0.166,1.015c-0.113,0.311-0.279,0.58-0.502,0.807
			c-0.224,0.227-0.504,0.404-0.843,0.532s-0.734,0.191-1.188,0.191H111.114z"/>
		<path fill="#FFFFFF" d="M126.718,145.51c-0.604,0-1.164-0.113-1.678-0.341c-0.514-0.227-0.961-0.537-1.339-0.932
			c-0.378-0.394-0.673-0.862-0.884-1.403s-0.316-1.127-0.316-1.756c0-0.637,0.105-1.219,0.316-1.745
			c0.211-0.525,0.506-0.973,0.884-1.344c0.378-0.37,0.825-0.657,1.339-0.859c0.514-0.204,1.073-0.306,1.678-0.306h2.115
			c0.629,0,1.205,0.104,1.727,0.311c0.521,0.207,0.97,0.498,1.346,0.873c0.373,0.374,0.664,0.822,0.871,1.344
			c0.207,0.522,0.311,1.097,0.311,1.727c0,0.629-0.105,1.215-0.316,1.756s-0.506,1.01-0.885,1.403
			c-0.378,0.395-0.826,0.706-1.344,0.932c-0.518,0.228-1.087,0.341-1.709,0.341H126.718z M128.833,143.993
			c0.398,0,0.766-0.071,1.1-0.215s0.623-0.341,0.866-0.591c0.243-0.251,0.432-0.552,0.567-0.903
			c0.137-0.351,0.203-0.728,0.203-1.135s-0.066-0.783-0.203-1.129c-0.136-0.346-0.324-0.643-0.567-0.89s-0.532-0.44-0.866-0.58
			s-0.701-0.209-1.1-0.209h-2.115c-0.391,0-0.75,0.07-1.08,0.209c-0.332,0.139-0.616,0.333-0.854,0.58
			c-0.239,0.247-0.427,0.542-0.562,0.884c-0.136,0.342-0.203,0.721-0.203,1.135c0,0.407,0.067,0.784,0.203,1.135
			c0.135,0.351,0.322,0.652,0.562,0.903c0.238,0.25,0.522,0.448,0.854,0.591c0.33,0.144,0.689,0.215,1.08,0.215H128.833z"/>
		<path fill="#FFFFFF" d="M135.647,145.51v-8.687h1.518v7.169h5.843v1.518H135.647z"/>
		<path fill="#FFFFFF" d="M152.886,136.823h1.48v4.851c0,0.67-0.088,1.253-0.264,1.751c-0.174,0.498-0.449,0.91-0.823,1.237
			c-0.374,0.326-0.858,0.57-1.452,0.729c-0.594,0.16-1.312,0.239-2.156,0.239c-0.836,0-1.551-0.08-2.145-0.239
			c-0.594-0.159-1.078-0.402-1.452-0.729c-0.374-0.327-0.649-0.739-0.823-1.237c-0.177-0.498-0.264-1.081-0.264-1.751v-4.851h1.564
			v4.851c0,0.439,0.055,0.813,0.162,1.124s0.283,0.565,0.525,0.765c0.242,0.199,0.567,0.344,0.975,0.436
			c0.405,0.092,0.908,0.137,1.504,0.137c0.598,0,1.1-0.045,1.506-0.137c0.407-0.092,0.73-0.237,0.975-0.436
			c0.242-0.199,0.418-0.454,0.525-0.765s0.162-0.685,0.162-1.124V136.823z"/>
		<path fill="#FFFFFF" d="M159.806,145.51v-7.169h-3.298v-1.518h8.112v1.518h-3.299v7.169H159.806z"/>
		<path fill="#FFFFFF" d="M166.878,145.51v-8.687h1.518v8.687H166.878z"/>
		<path fill="#FFFFFF" d="M175.245,145.51c-0.604,0-1.164-0.113-1.678-0.341c-0.514-0.227-0.96-0.537-1.339-0.932
			c-0.378-0.394-0.673-0.862-0.884-1.403s-0.316-1.127-0.316-1.756c0-0.637,0.105-1.219,0.316-1.745
			c0.211-0.525,0.506-0.973,0.884-1.344c0.379-0.37,0.825-0.657,1.339-0.859c0.514-0.204,1.073-0.306,1.678-0.306h2.115
			c0.629,0,1.205,0.104,1.727,0.311c0.521,0.207,0.97,0.498,1.346,0.873c0.374,0.374,0.664,0.822,0.871,1.344
			c0.207,0.522,0.311,1.097,0.311,1.727c0,0.629-0.105,1.215-0.316,1.756s-0.506,1.01-0.885,1.403
			c-0.378,0.395-0.826,0.706-1.344,0.932c-0.518,0.228-1.087,0.341-1.709,0.341H175.245z M177.36,143.993
			c0.398,0,0.766-0.071,1.1-0.215s0.624-0.341,0.867-0.591c0.242-0.251,0.431-0.552,0.566-0.903
			c0.137-0.351,0.203-0.728,0.203-1.135s-0.066-0.783-0.203-1.129c-0.136-0.346-0.324-0.643-0.566-0.89
			c-0.243-0.247-0.533-0.44-0.867-0.58s-0.701-0.209-1.1-0.209h-2.115c-0.39,0-0.75,0.07-1.08,0.209
			c-0.332,0.139-0.616,0.333-0.854,0.58c-0.239,0.247-0.427,0.542-0.562,0.884c-0.135,0.342-0.203,0.721-0.203,1.135
			c0,0.407,0.068,0.784,0.203,1.135s0.322,0.652,0.562,0.903c0.238,0.25,0.522,0.448,0.854,0.591c0.33,0.144,0.69,0.215,1.08,0.215
			H177.36z"/>
		<path fill="#FFFFFF" d="M185.603,139.153v6.357h-1.445v-7.886c0-0.278,0.068-0.5,0.208-0.663c0.14-0.164,0.329-0.245,0.568-0.245
			c0.11,0,0.219,0.023,0.322,0.071c0.104,0.048,0.21,0.127,0.323,0.24l6.129,6.082v-6.356h1.445v7.958
			c0,0.287-0.069,0.51-0.209,0.668c-0.14,0.16-0.32,0.24-0.544,0.24c-0.246,0-0.478-0.108-0.692-0.323L185.603,139.153z"/>
		<path fill="#FFFFFF" d="M195.961,145.51v-1.518h6.513c0.405,0,0.718-0.104,0.938-0.311c0.219-0.207,0.328-0.481,0.328-0.824
			c0-0.375-0.109-0.655-0.328-0.843c-0.22-0.187-0.532-0.28-0.938-0.28h-3.992c-0.406,0-0.773-0.062-1.105-0.186
			c-0.33-0.123-0.607-0.294-0.836-0.514c-0.227-0.219-0.402-0.48-0.525-0.783c-0.123-0.302-0.186-0.633-0.186-0.991
			c0-0.351,0.058-0.675,0.174-0.974c0.115-0.299,0.286-0.556,0.514-0.77c0.227-0.216,0.508-0.384,0.842-0.508
			c0.335-0.123,0.717-0.186,1.147-0.186h6.237v1.518h-6.237c-0.351,0-0.622,0.094-0.813,0.28c-0.19,0.188-0.286,0.449-0.286,0.783
			s0.096,0.593,0.291,0.777c0.195,0.183,0.461,0.275,0.796,0.275h3.979c0.883,0,1.555,0.207,2.012,0.621
			c0.459,0.415,0.688,1.043,0.688,1.888c0,0.366-0.056,0.705-0.167,1.015c-0.112,0.311-0.279,0.58-0.501,0.807
			c-0.224,0.227-0.504,0.404-0.843,0.532s-0.735,0.191-1.188,0.191H195.961z"/>
	</g>
	<g>
		<g>
			<path fill="#CBBBA0" d="M102.204,71.665c0,0-10.134-13.519-38.176-29.134C34.921,26.316,24.596,9.15,24.596,9.15
				s1.323,11.254,20.691,25.724c8.3,6.2,22.892,12.526,40.175,24.514C91.648,63.677,95.466,66.683,102.204,71.665z"/>
			<path fill="#CBBBA0" d="M23.32,18.607c0,0,10.012,14.181,34.323,27.102c33.59,17.848,47.098,30.492,47.098,30.492
				S86.329,64.193,68.979,55.358c-13.107-6.674-25.602-12.063-33.989-19.832C26.233,27.431,23.32,18.607,23.32,18.607z"/>
			<path fill="#CBBBA0" d="M106.979,80.044c0,0-16.767-11.405-29.115-17.665c-11.486-5.813-20.359-9.991-26.006-12.653
				C34.794,41.688,24,29.054,24,29.054s5.146,14.241,29.62,24.887C83.437,66.901,87.606,68.907,106.979,80.044z"/>
			<path fill="#CBBBA0" d="M108.903,83.535c0,0-13.336-8.315-26.712-14.395c-15.343-6.982-22.566-9.006-36.833-16.157
				c-7.722-3.868-18.833-13.033-18.833-13.033s9.302,11.271,20.093,16.896c10.799,5.63,25.104,10.935,32.964,13.781
				C88.997,74.038,108.903,83.535,108.903,83.535z"/>
			<path fill="#CBBBA0" d="M111.013,86.822c0,0-13.545-8.388-30.359-13.669c-12.936-4.062-21.173-7.46-29.986-11.478
				c-8.809-4.023-19.834-12.372-19.834-12.372s10.216,11.107,21.574,16.503c11.359,5.394,23.764,8.615,35.187,11.943
				C94.396,79.729,111.013,86.822,111.013,86.822z"/>
			<path fill="#CBBBA0" d="M113.066,90.382c0,0-10.843-6.737-31.083-12.132c-15.605-4.161-19.611-5.224-27.755-9.11
				c-8.657-4.14-15.114-8.908-15.114-8.908s7.154,8.446,20.131,13.613c11.478,4.569,23.986,7.007,32.408,9.414
				C100.077,85.677,113.066,90.382,113.066,90.382z"/>
			<path fill="#CBBBA0" d="M128.62,71.665c0,0,10.135-13.519,38.172-29.134c29.114-16.215,39.436-33.38,39.436-33.38
				s-1.322,11.254-20.694,25.724c-8.3,6.2-22.892,12.526-40.175,24.514C139.179,63.677,135.358,66.683,128.62,71.665z"/>
			<path fill="#CBBBA0" d="M207.505,18.607c0,0-10.014,14.181-34.324,27.102c-33.592,17.848-47.097,30.492-47.097,30.492
				s18.409-12.007,35.759-20.843c13.111-6.674,25.604-12.063,33.994-19.832C204.592,27.431,207.505,18.607,207.505,18.607z"/>
			<path fill="#CBBBA0" d="M123.845,80.044c0,0,16.766-11.405,29.113-17.665c11.483-5.813,20.359-9.991,26.007-12.653
				c17.064-8.038,27.858-20.672,27.858-20.672s-5.145,14.241-29.622,24.887C147.386,66.901,143.215,68.907,123.845,80.044z"/>
			<path fill="#CBBBA0" d="M121.92,83.535c0,0,13.335-8.315,26.71-14.395c15.342-6.982,22.57-9.006,36.836-16.157
				c7.721-3.868,18.832-13.033,18.832-13.033s-9.3,11.271-20.092,16.896c-10.802,5.63-25.104,10.935-32.965,13.781
				C141.827,74.038,121.92,83.535,121.92,83.535z"/>
			<path fill="#CBBBA0" d="M119.812,86.822c0,0,13.547-8.388,30.359-13.669c12.931-4.062,21.174-7.46,29.982-11.478
				c8.812-4.023,19.84-12.372,19.84-12.372s-10.219,11.107-21.577,16.503c-11.358,5.394-23.763,8.615-35.185,11.943
				C136.429,79.729,119.812,86.822,119.812,86.822z"/>
			<path fill="#CBBBA0" d="M117.755,90.382c0,0,10.847-6.737,31.083-12.132c15.604-4.161,19.61-5.224,27.755-9.11
				c8.658-4.14,15.115-8.908,15.115-8.908s-7.152,8.446-20.13,13.613c-11.476,4.569-23.985,7.007-32.409,9.414
				C130.746,85.677,117.755,90.382,117.755,90.382z"/>
			<path fill="#CBBBA0" d="M40.953,17.153c9.686,8.65,30.476,19.6,38.102,23.885c7.628,4.289,22.112,12.48,31.112,25.372
				c2.637,3.79,4.271,7.453,5.238,10.814c0.977-3.361,2.609-7.024,5.25-10.814c8.994-12.892,23.486-21.083,31.111-25.372
				c7.625-4.285,28.413-15.234,38.097-23.885C196.753,11,205.055,0,205.055,0s-4.087,12.747-18.837,25.38
				c-12.214,10.461-33.996,20.748-46.359,32.195c-7.303,6.762-16.904,16.373-20.43,23.733c-1.385,2.888-2.299,5.508-2.9,7.639
				c-0.92,3.238-1.116,5.316-1.123,5.369c0-0.053-0.195-2.13-1.113-5.369c-0.602-2.131-1.516-4.751-2.9-7.639
				c-3.525-7.361-13.127-16.971-20.43-23.733C78.597,46.127,56.816,35.841,44.603,25.38C29.853,12.747,25.687,0,25.687,0
				S34.066,11,40.953,17.153z"/>
			<path fill="#CBBBA0" d="M118.867,61.188c-0.151-0.487-0.06-1.177,1.526-1.363c1.587-0.188,3.455-2.037,3.455-2.037l-3.769,5.406
				C120.08,63.194,119.03,61.721,118.867,61.188z"/>
			<path fill="#CBBBA0" d="M111.953,61.195c0.146-0.49,0.063-1.18-1.523-1.366c-1.585-0.188-3.462-2.037-3.462-2.037l3.82,5.313
				C110.788,63.106,111.788,61.728,111.953,61.195z"/>
		</g>
		<path fill="#CBBBA0" d="M118.712,64.696c-0.002,0.751-0.901,2.229-1.56,3.758c-0.952,2.209-1.767,4.486-1.767,4.486
			s-0.715-2.236-1.669-4.463c-0.648-1.511-1.658-3.039-1.655-3.781c0-2.411,3.324-3.758,3.324-3.758S118.712,62.158,118.712,64.696z
			"/>
	</g>
</g>
</svg>
